<svg width="304" height="111" viewBox="0 0 304 111" fill="none" xmlns="http://www.w3.org/2000/svg">
<path d="M43.3589 99.9969C41.9014 99.9969 40.5514 99.6385 39.309 98.9217C38.0665 98.2049 37.063 97.1774 36.2984 95.8394C35.5577 94.4775 35.1873 92.8407 35.1873 90.9293V90.3916C35.1873 88.5041 35.5577 86.8793 36.2984 85.5173C37.0391 84.1554 38.0306 83.116 39.2731 82.3992C40.5156 81.6824 41.8775 81.324 43.3589 81.324C44.5058 81.324 45.4616 81.4674 46.2262 81.7541C47.0146 82.0408 47.6598 82.4112 48.1615 82.8652C48.6633 83.2952 49.0456 83.7492 49.3084 84.2271H49.8819V74.4068H53.5734V99.4951H49.9536V96.9863H49.3801C48.9261 97.7509 48.2332 98.4438 47.3014 99.065C46.3934 99.6863 45.0793 99.9969 43.3589 99.9969ZM44.3983 96.7712C45.9992 96.7712 47.3133 96.2575 48.3407 95.2301C49.3921 94.2027 49.9177 92.7332 49.9177 90.8217V90.4992C49.9177 88.6116 49.404 87.1541 48.3766 86.1266C47.3492 85.0992 46.0231 84.5855 44.3983 84.5855C42.8213 84.5855 41.5072 85.0992 40.4558 86.1266C39.4284 87.1541 38.9147 88.6116 38.9147 90.4992V90.8217C38.9147 92.7332 39.4284 94.2027 40.4558 95.2301C41.5072 96.2575 42.8213 96.7712 44.3983 96.7712ZM67.1077 99.9969C65.3157 99.9969 63.7506 99.6265 62.4126 98.8858C61.0746 98.1212 60.0232 97.058 59.2586 95.696C58.5179 94.3102 58.1476 92.7093 58.1476 90.8934V90.4633C58.1476 88.6235 58.5179 87.0226 59.2586 85.6607C59.9993 84.2749 61.0268 83.2116 62.3409 82.4709C63.679 81.7063 65.2201 81.324 66.9643 81.324C68.6608 81.324 70.1422 81.7063 71.4085 82.4709C72.6988 83.2116 73.7023 84.251 74.4191 85.589C75.1359 86.9271 75.4944 88.4921 75.4944 90.2841V91.6819H61.9108C61.9586 93.235 62.4723 94.4775 63.452 95.4093C64.4555 96.3173 65.698 96.7712 67.1794 96.7712C68.5652 96.7712 69.6046 96.4606 70.2975 95.8394C71.0143 95.2182 71.5639 94.5013 71.9462 93.689L74.9926 95.2659C74.6581 95.935 74.1683 96.6398 73.5231 97.3805C72.9019 98.1212 72.0776 98.7425 71.0501 99.2442C70.0227 99.746 68.7086 99.9969 67.1077 99.9969ZM61.9467 88.8505H71.7311C71.6355 87.5125 71.1577 86.4731 70.2975 85.7324C69.4373 84.9678 68.3143 84.5855 66.9285 84.5855C65.5427 84.5855 64.4077 84.9678 63.5236 85.7324C62.6635 86.4731 62.1378 87.5125 61.9467 88.8505ZM87.1778 99.9969C84.9318 99.9969 83.0681 99.4951 81.5867 98.4916C80.1053 97.4881 79.1973 95.9708 78.8628 93.9398L82.3035 93.1155C82.4946 94.0952 82.8172 94.8717 83.2712 95.4451C83.7251 96.0186 84.2866 96.4248 84.9557 96.6637C85.6486 96.9027 86.3893 97.0221 87.1778 97.0221C88.3486 97.0221 89.2446 96.7951 89.8658 96.3412C90.5109 95.8872 90.8335 95.3018 90.8335 94.585C90.8335 93.8682 90.5348 93.3425 89.9375 93.008C89.3401 92.6735 88.4561 92.3987 87.2853 92.1837L86.0667 91.9686C84.872 91.7536 83.7849 91.443 82.8052 91.0368C81.8256 90.6306 81.0491 90.0691 80.4756 89.3523C79.9022 88.6355 79.6154 87.7156 79.6154 86.5926C79.6154 84.92 80.2367 83.6298 81.4791 82.7218C82.7216 81.7899 84.3703 81.324 86.4251 81.324C88.4083 81.324 90.0331 81.778 91.2994 82.686C92.5897 83.57 93.426 84.7766 93.8083 86.3058L90.3676 87.2735C90.1525 86.1983 89.6986 85.4457 89.0056 85.0156C88.3127 84.5616 87.4526 84.3346 86.4251 84.3346C85.4216 84.3346 84.6331 84.5258 84.0597 84.9081C83.4862 85.2665 83.1995 85.7802 83.1995 86.4492C83.1995 87.166 83.4743 87.6917 84.0238 88.0262C84.5973 88.3607 85.3619 88.6116 86.3176 88.7788L87.572 88.9939C88.8384 89.2089 89.9972 89.5076 91.0485 89.8899C92.0999 90.2722 92.9242 90.8217 93.5215 91.5385C94.1428 92.2553 94.4534 93.2111 94.4534 94.4058C94.4534 96.1739 93.7963 97.5478 92.4822 98.5274C91.168 99.5071 89.3999 99.9969 87.1778 99.9969ZM98.7682 99.4951V81.8258H102.46V99.4951H98.7682ZM100.632 79.4245C99.9151 79.4245 99.3058 79.1975 98.8041 78.7435C98.3262 78.2656 98.0873 77.6563 98.0873 76.9156C98.0873 76.1749 98.3262 75.5776 98.8041 75.1236C99.3058 74.6457 99.9151 74.4068 100.632 74.4068C101.373 74.4068 101.982 74.6457 102.46 75.1236C102.938 75.5776 103.177 76.1749 103.177 76.9156C103.177 77.6563 102.938 78.2656 102.46 78.7435C101.982 79.1975 101.373 79.4245 100.632 79.4245ZM107.078 90.7501V90.2124C107.078 88.3487 107.449 86.7598 108.189 85.4457C108.954 84.1315 109.957 83.116 111.2 82.3992C112.442 81.6824 113.804 81.324 115.286 81.324C117.006 81.324 118.32 81.6466 119.228 82.2917C120.16 82.9368 120.841 83.6298 121.271 84.3705H121.844V81.8258H125.428V103.115C125.428 104.19 125.106 105.05 124.461 105.696C123.84 106.341 122.979 106.663 121.88 106.663H109.981V103.438H120.733C121.426 103.438 121.773 103.079 121.773 102.362V96.7354H121.199C120.936 97.1655 120.566 97.6075 120.088 98.0615C119.61 98.5155 118.977 98.8858 118.189 99.1726C117.424 99.4593 116.456 99.6026 115.286 99.6026C113.804 99.6026 112.43 99.2562 111.164 98.5633C109.922 97.8465 108.93 96.831 108.189 95.5168C107.449 94.1788 107.078 92.5899 107.078 90.7501ZM116.289 96.377C117.89 96.377 119.204 95.8752 120.232 94.8717C121.283 93.8443 121.809 92.4346 121.809 90.6425V90.32C121.809 88.4802 121.295 87.0704 120.267 86.0908C119.24 85.0873 117.914 84.5855 116.289 84.5855C114.712 84.5855 113.398 85.0873 112.347 86.0908C111.319 87.0704 110.806 88.4802 110.806 90.32V90.6425C110.806 92.4346 111.319 93.8443 112.347 94.8717C113.398 95.8752 114.712 96.377 116.289 96.377ZM130.864 99.4951V81.8258H134.484V84.478H135.057C135.391 83.7612 135.989 83.0921 136.849 82.4709C137.709 81.8497 138.987 81.5391 140.684 81.5391C142.022 81.5391 143.205 81.8377 144.232 82.4351C145.283 83.0324 146.108 83.8806 146.705 84.9797C147.302 86.055 147.601 87.3572 147.601 88.8863V99.4951H143.91V89.1731C143.91 87.6439 143.527 86.5209 142.763 85.8041C141.998 85.0634 140.947 84.693 139.609 84.693C138.08 84.693 136.849 85.1948 135.917 86.1983C135.009 87.2018 134.555 88.6594 134.555 90.5708V99.4951H130.864ZM169.289 99.9969C167.043 99.9969 165.179 99.4951 163.698 98.4916C162.216 97.4881 161.308 95.9708 160.974 93.9398L164.414 93.1155C164.606 94.0952 164.928 94.8717 165.382 95.4451C165.836 96.0186 166.398 96.4248 167.067 96.6637C167.76 96.9027 168.5 97.0221 169.289 97.0221C170.46 97.0221 171.356 96.7951 171.977 96.3412C172.622 95.8872 172.945 95.3018 172.945 94.585C172.945 93.8682 172.646 93.3425 172.048 93.008C171.451 92.6735 170.567 92.3987 169.396 92.1837L168.178 91.9686C166.983 91.7536 165.896 91.443 164.916 91.0368C163.937 90.6306 163.16 90.0691 162.587 89.3523C162.013 88.6355 161.726 87.7156 161.726 86.5926C161.726 84.92 162.348 83.6298 163.59 82.7218C164.833 81.7899 166.481 81.324 168.536 81.324C170.519 81.324 172.144 81.778 173.41 82.686C174.701 83.57 175.537 84.7766 175.919 86.3058L172.479 87.2735C172.264 86.1983 171.81 85.4457 171.117 85.0156C170.424 84.5616 169.564 84.3346 168.536 84.3346C167.533 84.3346 166.744 84.5258 166.171 84.9081C165.597 85.2665 165.31 85.7802 165.31 86.4492C165.31 87.166 165.585 87.6917 166.135 88.0262C166.708 88.3607 167.473 88.6116 168.429 88.7788L169.683 88.9939C170.949 89.2089 172.108 89.5076 173.16 89.8899C174.211 90.2722 175.035 90.8217 175.633 91.5385C176.254 92.2553 176.564 93.2111 176.564 94.4058C176.564 96.1739 175.907 97.5478 174.593 98.5274C173.279 99.5071 171.511 99.9969 169.289 99.9969ZM187.125 99.4951C186.049 99.4951 185.189 99.1726 184.544 98.5274C183.923 97.8823 183.612 97.0221 183.612 95.9469V84.9439H178.738V81.8258H183.612V75.9838H187.304V81.8258H192.572V84.9439H187.304V95.3018C187.304 96.0186 187.638 96.377 188.307 96.377H191.999V99.4951H187.125ZM203.683 99.8177C202.345 99.8177 201.151 99.519 200.099 98.9217C199.048 98.3243 198.224 97.4761 197.626 96.377C197.029 95.2779 196.73 93.9637 196.73 92.4346V81.8258H200.422V92.1837C200.422 93.7129 200.804 94.8478 201.569 95.5885C202.333 96.3053 203.397 96.6637 204.758 96.6637C206.264 96.6637 207.47 96.162 208.378 95.1584C209.31 94.131 209.776 92.6615 209.776 90.7501V81.8258H213.468V99.4951H209.848V96.8429H209.274C208.94 97.5597 208.343 98.2407 207.482 98.8858C206.622 99.5071 205.356 99.8177 203.683 99.8177ZM226.236 99.9969C224.779 99.9969 223.429 99.6385 222.186 98.9217C220.944 98.2049 219.94 97.1774 219.176 95.8394C218.435 94.4775 218.065 92.8407 218.065 90.9293V90.3916C218.065 88.5041 218.435 86.8793 219.176 85.5173C219.916 84.1554 220.908 83.116 222.15 82.3992C223.393 81.6824 224.755 81.324 226.236 81.324C227.383 81.324 228.339 81.4674 229.103 81.7541C229.892 82.0408 230.537 82.4112 231.039 82.8652C231.541 83.2952 231.923 83.7492 232.186 84.2271H232.759V74.4068H236.451V99.4951H232.831V96.9863H232.257C231.803 97.7509 231.11 98.4438 230.179 99.065C229.271 99.6863 227.956 99.9969 226.236 99.9969ZM227.276 96.7712C228.876 96.7712 230.191 96.2575 231.218 95.2301C232.269 94.2027 232.795 92.7332 232.795 90.8217V90.4992C232.795 88.6116 232.281 87.1541 231.254 86.1266C230.226 85.0992 228.9 84.5855 227.276 84.5855C225.699 84.5855 224.384 85.0992 223.333 86.1266C222.306 87.1541 221.792 88.6116 221.792 90.4992V90.8217C221.792 92.7332 222.306 94.2027 223.333 95.2301C224.384 96.2575 225.699 96.7712 227.276 96.7712ZM241.885 99.4951V81.8258H245.577V99.4951H241.885ZM243.749 79.4245C243.032 79.4245 242.423 79.1975 241.921 78.7435C241.443 78.2656 241.204 77.6563 241.204 76.9156C241.204 76.1749 241.443 75.5776 241.921 75.1236C242.423 74.6457 243.032 74.4068 243.749 74.4068C244.489 74.4068 245.099 74.6457 245.577 75.1236C246.054 75.5776 246.293 76.1749 246.293 76.9156C246.293 77.6563 246.054 78.2656 245.577 78.7435C245.099 79.1975 244.489 79.4245 243.749 79.4245ZM259.334 99.9969C257.566 99.9969 255.989 99.6385 254.603 98.9217C253.241 98.181 252.166 97.1296 251.378 95.7677C250.589 94.4058 250.195 92.793 250.195 90.9293V90.3916C250.195 88.5279 250.589 86.9271 251.378 85.589C252.166 84.2271 253.241 83.1758 254.603 82.4351C255.989 81.6944 257.566 81.324 259.334 81.324C261.102 81.324 262.679 81.6944 264.065 82.4351C265.451 83.1758 266.538 84.2271 267.327 85.589C268.115 86.9271 268.509 88.5279 268.509 90.3916V90.9293C268.509 92.793 268.115 94.4058 267.327 95.7677C266.538 97.1296 265.451 98.181 264.065 98.9217C262.679 99.6385 261.102 99.9969 259.334 99.9969ZM259.334 96.6996C260.959 96.6996 262.273 96.1859 263.277 95.1584C264.304 94.1071 264.818 92.6615 264.818 90.8217V90.4992C264.818 88.6594 264.316 87.2257 263.313 86.1983C262.309 85.147 260.983 84.6213 259.334 84.6213C257.733 84.6213 256.419 85.147 255.392 86.1983C254.388 87.2257 253.886 88.6594 253.886 90.4992V90.8217C253.886 92.6615 254.388 94.1071 255.392 95.1584C256.419 96.1859 257.733 96.6996 259.334 96.6996Z" fill="#F0FC5A"/>
<circle cx="285.229" cy="90.6289" r="3.73338" fill="#F0FC5A"/>
<circle cx="17.9199" cy="90.6289" r="3.73338" fill="#F0FC5A"/>
<path d="M22.3583 53.8631C22.3583 54.8193 22.0208 55.663 21.3458 56.3942C20.7271 57.0691 19.9115 57.6597 18.8991 58.166C17.9429 58.6159 16.8742 58.9816 15.693 59.2628C14.5118 59.544 13.3868 59.769 12.3181 59.9378C11.2494 60.0502 10.2932 60.1346 9.44953 60.1909C8.66207 60.1909 8.15584 60.1909 7.93085 60.1909C6.69342 60.1909 5.73721 59.994 5.06225 59.6003C4.38728 59.2065 4.0498 58.5035 4.0498 57.491C4.0498 57.1535 4.07792 56.8723 4.13417 56.6473C4.19042 56.3661 4.4154 56.2254 4.80913 56.2254C4.97788 56.2254 5.25911 56.2817 5.65284 56.3942C6.04657 56.4504 6.35593 56.4786 6.58092 56.4786C6.80591 56.4786 7.509 56.4504 8.69019 56.3942C9.92763 56.2817 11.2213 56.1129 12.5712 55.888C13.9774 55.663 15.2149 55.3536 16.2836 54.9599C17.4085 54.5099 17.971 53.9474 17.971 53.2725C17.971 53.16 17.3804 52.8225 16.1992 52.26C15.0742 51.6413 13.3587 50.6288 11.0526 49.2227C9.25266 48.0977 7.9871 46.9728 7.25589 45.8478C6.52467 44.6666 6.15907 43.0917 6.15907 41.1231C6.15907 39.8856 6.41218 38.8732 6.9184 38.0857C7.48088 37.2983 8.21209 36.6795 9.11204 36.2296C10.0682 35.7796 11.1369 35.4702 12.3181 35.3015C13.5556 35.0765 14.8493 34.964 16.1992 34.964C16.3117 34.964 16.6492 35.0203 17.2116 35.1327C17.8304 35.2452 18.4772 35.4421 19.1522 35.7233C19.8271 35.9483 20.4177 36.2577 20.924 36.6514C21.4864 36.9889 21.7677 37.3826 21.7677 37.8326C21.7677 37.9451 21.6552 38.1138 21.4302 38.3388C21.2614 38.5638 20.9521 38.9857 20.5021 39.6044C20.3334 39.5481 20.024 39.4638 19.574 39.3513C19.1803 39.2388 18.7022 39.1263 18.1397 39.0138C17.6335 38.8451 17.0991 38.7326 16.5367 38.6763C15.9742 38.5638 15.5242 38.5076 15.1867 38.5076C13.7243 38.5076 12.5431 38.7888 11.6432 39.3513C10.7432 39.8575 10.2932 40.87 10.2932 42.3886C10.2932 43.1198 10.5745 43.7948 11.1369 44.4135C11.7557 45.0322 12.515 45.6228 13.415 46.1853C14.3149 46.6915 15.2711 47.2259 16.2836 47.7884C17.3523 48.2946 18.3366 48.8571 19.2365 49.4758C20.1365 50.0945 20.8677 50.7695 21.4302 51.5007C22.0489 52.1756 22.3583 52.9631 22.3583 53.8631ZM62.9024 26.8644C62.1712 27.7081 61.1306 28.5518 59.7806 29.3955C58.4307 30.183 57.0808 30.9142 55.7309 31.5892C54.3809 32.2641 53.1997 32.8547 52.1873 33.361C51.1748 33.8109 50.6686 34.1203 50.6686 34.289C50.6686 34.4578 50.7811 34.964 51.0061 35.8077C51.2311 36.6514 51.4842 37.6639 51.7654 38.8451C52.1029 39.97 52.4404 41.1512 52.7779 42.3886C53.1154 43.6261 53.3966 44.7229 53.6216 45.6791C53.7341 46.2416 53.8747 46.9728 54.0434 47.8727C54.2122 48.7727 54.3528 49.6726 54.4653 50.5726C54.634 51.4726 54.7746 52.2881 54.8871 53.0193C54.9996 53.6943 55.0559 54.0599 55.0559 54.1162C55.0559 54.9599 54.9153 55.8317 54.634 56.7317C54.3528 57.6316 53.9028 58.0816 53.2841 58.0816C52.9466 58.0816 52.6373 57.941 52.356 57.6597C52.0748 57.3785 51.8217 57.0691 51.5967 56.7317C51.3717 56.3379 51.203 55.9723 51.0905 55.6348C50.978 55.2974 50.9217 55.0442 50.9217 54.8755C50.9217 54.763 50.9217 54.5943 50.9217 54.3693C50.978 54.1443 51.0061 53.8912 51.0061 53.6099C51.0061 52.5412 50.8373 50.9945 50.4999 48.9696C50.3874 48.3508 50.1624 47.3946 49.8249 46.1009C49.4874 44.8073 49.1499 43.4855 48.8124 42.1355C48.4187 40.5606 47.9687 38.8451 47.4625 36.9889C47.2375 36.2014 47.0969 35.8077 47.0407 35.8077C46.6469 35.8077 45.972 36.0608 45.0158 36.567C44.1158 37.017 43.0752 37.6076 41.894 38.3388C40.7129 39.0138 39.4754 39.7731 38.1817 40.6168C36.888 41.4043 35.6787 42.1636 34.5538 42.8949C33.4288 43.5698 32.4726 44.1604 31.6852 44.6666C30.8415 45.1166 30.3352 45.3416 30.1665 45.3416C29.4353 45.3416 28.8447 45.0885 28.3947 44.5823C27.9447 44.076 27.7198 43.5136 27.7198 42.8949C27.7198 42.5574 28.1979 42.0793 29.1541 41.4606C30.054 40.7856 31.2071 40.0544 32.6133 39.2669C33.9632 38.4795 35.4537 37.6639 37.0849 36.8202C38.6598 35.9765 40.1223 35.2171 41.4722 34.5421C42.8784 33.8672 44.0314 33.3047 44.9314 32.8547C45.8876 32.4048 46.3657 32.1798 46.3657 32.1798C45.8595 29.5924 45.4376 27.2863 45.1001 25.2614C44.8189 23.5177 44.5377 21.9147 44.2564 20.4522C44.0314 18.9898 43.9189 18.2023 43.9189 18.0898C43.9189 17.3586 44.0596 16.8243 44.3408 16.4868C44.6783 16.0931 45.0439 15.8962 45.4376 15.8962C46.0563 15.8962 46.4501 16.3181 46.6188 17.1618C47.2375 20.1991 47.8 22.899 48.3062 25.2614C48.8687 27.6237 49.403 29.5361 49.9093 30.9986C50.4155 30.8861 51.2873 30.5767 52.5248 30.0705C53.7622 29.508 55.0559 28.9174 56.4058 28.2987C57.7558 27.68 58.9651 27.1456 60.0338 26.6957C61.1587 26.1894 61.8055 25.9363 61.9743 25.9363C62.3118 25.9363 62.5086 26.0488 62.5649 26.2738C62.6774 26.4988 62.7899 26.6957 62.9024 26.8644ZM83.4328 26.1894C83.4328 26.3019 83.2359 26.5269 82.8422 26.8644C82.4485 27.2019 81.9704 27.5675 81.4079 27.9612C80.9017 28.2987 80.3673 28.6081 79.8049 28.8893C79.2424 29.1705 78.7924 29.3112 78.4549 29.3112C78.2299 29.3112 77.9206 29.3112 77.5269 29.3112C77.1894 29.2549 76.8238 29.1424 76.43 28.9737C76.0926 28.8049 75.7832 28.5799 75.502 28.2987C75.2207 27.9612 75.0801 27.5394 75.0801 27.0332C75.0801 26.2457 75.3613 25.5145 75.9238 24.8395C76.4863 24.1083 77.2175 23.7427 78.1174 23.7427C78.2862 23.7427 78.6518 23.8271 79.2143 23.9958C79.833 24.1083 80.4517 24.277 81.0704 24.502C81.6891 24.727 82.2235 24.9801 82.6735 25.2614C83.1797 25.5426 83.4328 25.852 83.4328 26.1894ZM86.217 57.7441C86.217 58.1378 85.9077 58.4753 85.289 58.7566C84.7265 59.0378 84.3046 59.1784 84.0234 59.1784C83.4609 59.1784 82.9547 58.8128 82.5047 58.0816C82.0548 57.3504 81.661 56.5067 81.3235 55.5505C80.9861 54.5943 80.7048 53.6943 80.4798 52.8506C80.2548 51.9507 80.0861 51.3319 79.9736 50.9945C79.8049 50.432 79.5799 49.757 79.2986 48.9696C79.0174 48.1821 78.7362 47.4228 78.4549 46.6915C78.2299 45.9603 78.0331 45.3135 77.8643 44.751C77.6956 44.1885 77.6112 43.8792 77.6112 43.8229C77.6112 43.0355 77.7518 42.3043 78.0331 41.6293C78.3706 40.9543 78.7643 40.6168 79.2143 40.6168C79.7205 40.6168 80.2548 41.0106 80.8173 41.798C81.3798 42.5855 81.9141 43.5979 82.4204 44.8354C82.9828 46.0166 83.4891 47.3384 83.939 48.8008C84.389 50.207 84.7827 51.5569 85.1202 52.8506C85.4577 54.088 85.7108 55.1849 85.8796 56.1411C86.1045 57.041 86.217 57.5754 86.217 57.7441ZM113.745 62.5532C113.745 63.0032 113.576 63.3407 113.239 63.5657C112.901 63.7907 112.508 63.9032 112.058 63.9032C111.551 63.9032 111.017 63.4251 110.455 62.4689C109.948 61.5127 109.442 60.3034 108.936 58.8409C108.43 57.3785 107.952 55.8036 107.502 54.1162C107.052 52.3725 106.658 50.7695 106.32 49.307C105.983 47.7884 105.702 46.5228 105.477 45.5104C105.308 44.4979 105.224 43.9354 105.224 43.8229C105.224 43.5979 105.111 43.0073 104.886 42.0511C104.717 41.0949 104.464 39.6044 104.127 37.5795C103.845 35.5546 103.508 32.9391 103.114 29.733C102.777 26.4707 102.411 22.449 102.017 17.668C102.017 17.1618 102.102 16.5149 102.271 15.7275C102.439 14.94 102.833 14.5463 103.452 14.5463C104.239 14.5463 104.83 15.0806 105.224 16.1493C105.674 17.218 106.011 18.5398 106.236 20.1147C106.517 21.6897 106.714 23.349 106.827 25.0926C106.939 26.78 107.08 28.2706 107.248 29.5643C107.473 31.3642 107.67 32.9954 107.839 34.4578C108.064 35.9202 108.261 37.3826 108.43 38.8451C108.655 40.2512 108.908 41.7418 109.189 43.3167C109.526 44.8916 109.92 46.6353 110.37 48.5477L113.745 62.5532ZM142.51 62.5532C142.51 63.0032 142.341 63.3407 142.004 63.5657C141.666 63.7907 141.273 63.9032 140.823 63.9032C140.317 63.9032 139.782 63.4251 139.22 62.4689C138.713 61.5127 138.207 60.3034 137.701 58.8409C137.195 57.3785 136.717 55.8036 136.267 54.1162C135.817 52.3725 135.423 50.7695 135.086 49.307C134.748 47.7884 134.467 46.5228 134.242 45.5104C134.073 44.4979 133.989 43.9354 133.989 43.8229C133.989 43.5979 133.876 43.0073 133.651 42.0511C133.482 41.0949 133.229 39.6044 132.892 37.5795C132.611 35.5546 132.273 32.9391 131.879 29.733C131.542 26.4707 131.176 22.449 130.783 17.668C130.783 17.1618 130.867 16.5149 131.036 15.7275C131.204 14.94 131.598 14.5463 132.217 14.5463C133.004 14.5463 133.595 15.0806 133.989 16.1493C134.439 17.218 134.776 18.5398 135.001 20.1147C135.282 21.6897 135.479 23.349 135.592 25.0926C135.704 26.78 135.845 28.2706 136.014 29.5643C136.239 31.3642 136.435 32.9954 136.604 34.4578C136.829 35.9202 137.026 37.3826 137.195 38.8451C137.42 40.2512 137.673 41.7418 137.954 43.3167C138.292 44.8916 138.685 46.6353 139.135 48.5477L142.51 62.5532Z" fill="currentColor"/>
<path d="M190.811 62.5532C190.811 63.0032 190.642 63.3407 190.305 63.5657C189.967 63.7907 189.574 63.9032 189.124 63.9032C188.617 63.9032 188.083 63.4251 187.521 62.4689C187.014 61.5127 186.508 60.3034 186.002 58.8409C185.496 57.3785 185.018 55.8036 184.568 54.1162C184.118 52.3725 183.724 50.7695 183.386 49.307C183.049 47.7884 182.768 46.5228 182.543 45.5104C182.374 44.4979 182.29 43.9354 182.29 43.8229C182.29 43.5979 182.177 43.0073 181.952 42.0511C181.783 41.0949 181.53 39.6044 181.193 37.5795C180.911 35.5546 180.574 32.9391 180.18 29.733C179.843 26.4707 179.477 22.449 179.083 17.668C179.083 17.1618 179.168 16.5149 179.337 15.7275C179.505 14.94 179.899 14.5463 180.518 14.5463C181.305 14.5463 181.896 15.0806 182.29 16.1493C182.74 17.218 183.077 18.5398 183.302 20.1147C183.583 21.6897 183.78 23.349 183.893 25.0926C184.005 26.78 184.146 28.2706 184.314 29.5643C184.539 31.3642 184.736 32.9954 184.905 34.4578C185.13 35.9202 185.327 37.3826 185.496 38.8451C185.721 40.2512 185.974 41.7418 186.255 43.3167C186.592 44.8916 186.986 46.6353 187.436 48.5477L190.811 62.5532ZM213.333 26.1894C213.333 26.3019 213.136 26.5269 212.742 26.8644C212.348 27.2019 211.87 27.5675 211.308 27.9612C210.802 28.2987 210.267 28.6081 209.705 28.8893C209.142 29.1705 208.692 29.3112 208.355 29.3112C208.13 29.3112 207.82 29.3112 207.427 29.3112C207.089 29.2549 206.724 29.1424 206.33 28.9737C205.992 28.8049 205.683 28.5799 205.402 28.2987C205.121 27.9612 204.98 27.5394 204.98 27.0332C204.98 26.2457 205.261 25.5145 205.824 24.8395C206.386 24.1083 207.117 23.7427 208.017 23.7427C208.186 23.7427 208.552 23.8271 209.114 23.9958C209.733 24.1083 210.352 24.277 210.97 24.502C211.589 24.727 212.123 24.9801 212.573 25.2614C213.08 25.5426 213.333 25.852 213.333 26.1894ZM216.117 57.7441C216.117 58.1378 215.808 58.4753 215.189 58.7566C214.626 59.0378 214.205 59.1784 213.923 59.1784C213.361 59.1784 212.855 58.8128 212.405 58.0816C211.955 57.3504 211.561 56.5067 211.223 55.5505C210.886 54.5943 210.605 53.6943 210.38 52.8506C210.155 51.9507 209.986 51.3319 209.874 50.9945C209.705 50.432 209.48 49.757 209.199 48.9696C208.917 48.1821 208.636 47.4228 208.355 46.6915C208.13 45.9603 207.933 45.3135 207.764 44.751C207.595 44.1885 207.511 43.8792 207.511 43.8229C207.511 43.0355 207.652 42.3043 207.933 41.6293C208.27 40.9543 208.664 40.6168 209.114 40.6168C209.62 40.6168 210.155 41.0106 210.717 41.798C211.28 42.5855 211.814 43.5979 212.32 44.8354C212.883 46.0166 213.389 47.3384 213.839 48.8008C214.289 50.207 214.683 51.5569 215.02 52.8506C215.358 54.088 215.611 55.1849 215.779 56.1411C216.004 57.041 216.117 57.5754 216.117 57.7441ZM260.013 4.50615C260.069 4.61865 260.097 4.81551 260.097 5.09675C260.097 5.37798 260.097 5.68734 260.097 6.02482C260.097 6.41856 259.957 6.61542 259.675 6.61542C259.563 6.61542 259.422 6.5873 259.253 6.53105C259.085 6.47481 258.944 6.41856 258.832 6.36231C257.819 5.91233 256.582 5.34986 255.119 4.67489C253.713 3.94368 252.11 3.57807 250.31 3.57807C248.285 3.57807 246.654 4.33741 245.417 5.85608C244.179 7.37476 243.223 9.14655 242.548 11.1714C241.929 13.1401 241.507 15.0806 241.283 16.993C241.114 18.9054 241.029 20.2835 241.029 21.1272C241.029 21.7459 241.114 22.7302 241.283 24.0802C241.507 25.3739 241.789 26.7238 242.126 28.13C242.464 29.5361 242.857 30.8298 243.307 32.011C243.757 33.136 244.207 33.8391 244.657 34.1203C244.995 34.1203 245.585 34.0922 246.429 34.0359C247.329 33.9797 248.06 33.9516 248.623 33.9516C249.579 33.9516 250.479 34.0359 251.323 34.2047C252.166 34.3734 253.038 34.4578 253.938 34.4578C254.163 34.4578 254.501 34.4578 254.951 34.4578C255.401 34.4578 255.851 34.4859 256.301 34.5421C256.807 34.5984 257.229 34.7109 257.566 34.8796C257.904 34.9921 258.072 35.1609 258.072 35.3859C258.072 35.6671 257.875 35.9202 257.482 36.1452C257.088 36.3702 256.638 36.567 256.132 36.7358C255.626 36.8483 255.119 36.9327 254.613 36.9889C254.107 37.0451 253.713 37.0733 253.432 37.0733C253.151 37.0733 252.785 37.0733 252.335 37.0733C251.885 37.017 251.379 36.9608 250.816 36.9045C250.31 36.8483 249.804 36.8202 249.298 36.8202C248.848 36.7639 248.454 36.7358 248.117 36.7358C247.217 36.7358 246.654 36.8483 246.429 37.0733C246.26 37.242 246.176 37.6076 246.176 38.1701C246.176 39.0138 246.542 40.1669 247.273 41.6293C248.06 43.0355 248.904 44.5541 249.804 46.1853C250.704 47.8165 251.519 49.5039 252.251 51.2476C253.038 52.9912 253.432 54.5943 253.432 56.0567C253.432 56.3379 253.348 56.8723 253.179 57.6597C253.066 58.391 252.869 59.1503 252.588 59.9378C252.363 60.7252 252.026 61.4283 251.576 62.047C251.126 62.6657 250.62 62.9751 250.057 62.9751C249.607 62.9751 249.185 62.8626 248.792 62.6376C248.454 62.3564 248.285 61.9064 248.285 61.2877C248.285 60.3877 248.51 59.544 248.96 58.7566C249.466 57.9691 249.72 57.1254 249.72 56.2254C249.72 55.7755 249.495 55.0161 249.045 53.9474C248.651 52.8787 248.145 51.6975 247.526 50.4039C246.907 49.0539 246.232 47.6477 245.501 46.1853C244.77 44.7229 244.067 43.4011 243.392 42.2199C242.773 40.9825 242.239 39.97 241.789 39.1825C241.339 38.3951 241.086 37.9732 241.029 37.917C239.904 38.3107 238.751 38.7044 237.57 39.0982C236.389 39.4919 235.32 40.0825 234.364 40.87C233.97 41.2637 233.605 41.4606 233.267 41.4606C232.705 41.4606 232.17 41.2356 231.664 40.7856C231.214 40.3356 230.989 39.8294 230.989 39.2669C230.989 38.6482 231.158 38.1701 231.495 37.8326C231.889 37.4389 232.255 37.1576 232.592 36.9889C233.099 36.7077 233.886 36.3983 234.955 36.0608C236.023 35.7233 237.092 35.4421 238.161 35.2171C238.555 35.1046 238.92 35.0203 239.258 34.964C239.595 34.8515 239.764 34.6546 239.764 34.3734C239.595 33.8109 239.342 33.0797 239.004 32.1798C238.723 31.2236 238.414 30.0986 238.076 28.8049C237.795 27.5113 237.542 26.0769 237.317 24.502C237.092 22.8709 236.98 21.1272 236.98 19.271C236.98 17.2461 237.205 15.1087 237.655 12.8589C238.161 10.609 238.92 8.55595 239.933 6.69979C241.001 4.78739 242.323 3.24059 243.898 2.0594C245.473 0.821963 247.357 0.203246 249.551 0.203246C250.563 0.203246 251.688 0.315738 252.926 0.540724C254.163 0.709467 255.288 0.990704 256.301 1.38444C257.369 1.72192 258.241 2.1719 258.916 2.73437C259.647 3.24059 260.013 3.83119 260.013 4.50615ZM299.804 56.1411C299.86 56.2536 299.889 56.4223 299.889 56.6473C299.889 56.9848 299.635 57.491 299.129 58.166C298.96 58.391 298.595 58.7566 298.032 59.2628C297.47 59.769 296.711 60.2752 295.754 60.7815C294.798 61.2877 293.617 61.7377 292.211 62.1314C290.861 62.5251 289.258 62.722 287.402 62.722C286.108 62.722 284.842 62.4408 283.605 61.8783C282.368 61.2596 281.271 60.3877 280.315 59.2628C279.358 58.0816 278.571 56.6473 277.952 54.9599C277.333 53.2162 277.024 51.1913 277.024 48.8852C277.024 46.6915 277.305 44.6385 277.868 42.7261C278.43 40.8137 279.133 39.1263 279.977 37.6639C280.877 36.2014 281.861 35.0484 282.93 34.2047C283.999 33.361 285.039 32.9391 286.052 32.9391C286.952 32.9391 287.852 33.136 288.752 33.5297C289.708 33.8672 290.552 34.3172 291.283 34.8796C292.07 35.4421 292.689 36.0889 293.139 36.8202C293.589 37.4951 293.814 38.1982 293.814 38.9294C293.814 39.7731 293.42 40.645 292.633 41.5449C291.901 42.4449 291.002 43.2886 289.933 44.076C288.864 44.8073 287.795 45.426 286.727 45.9322C285.658 46.3822 284.814 46.6072 284.196 46.6072C283.858 46.6072 283.549 46.4666 283.268 46.1853C283.043 45.8478 282.93 45.4541 282.93 45.0041C282.93 44.2167 283.268 43.5979 283.942 43.148C284.674 42.698 285.461 42.3043 286.305 41.9668C287.149 41.573 287.908 41.1231 288.583 40.6168C289.314 40.1106 289.68 39.4075 289.68 38.5076C289.68 38.3951 289.539 38.1138 289.258 37.6639C288.977 37.2139 288.217 36.9889 286.98 36.9889C286.417 36.9889 285.771 37.3264 285.039 38.0014C284.308 38.6201 283.605 39.4919 282.93 40.6168C282.255 41.6855 281.693 42.9792 281.243 44.4979C280.793 45.9603 280.568 47.5634 280.568 49.307C280.568 50.7695 280.821 52.0913 281.327 53.2725C281.889 54.4537 282.593 55.4661 283.436 56.3098C284.28 57.0973 285.264 57.716 286.389 58.166C287.514 58.6159 288.667 58.8409 289.848 58.8409C290.692 58.8409 291.592 58.6722 292.548 58.3347C293.561 57.941 294.489 57.5472 295.333 57.1535C296.232 56.7035 296.992 56.3098 297.611 55.9723C298.286 55.5786 298.707 55.3817 298.876 55.3817C299.045 55.3817 299.214 55.4661 299.382 55.6348C299.607 55.8036 299.748 55.9723 299.804 56.1411Z" fill="currentColor"/>
</svg>
